# xmcd
#
# Track frame offsets: 
#        150
#        18182
#        34787
#        55997
#        74679
#        92597
#        111617
#        131064
#
# Disc length: 2264 seconds
#
# Revision: 0
# Processed by: cddbd v1.5.2PL0 Copyright (c) Steve Scherf et al.
# Submitted via: ExactAudioCopy v1.3
#
DISCID=7108d608
DTITLE=Wolf Schubert-K. and The Sacred Blues Band - Live at Weseler Werf
DTITLE=t
DYEAR=2010
DGENRE=Blues
TTITLE0=Could it be
TTITLE1=Yelling heart
TTITLE2=Aimlessly
TTITLE3=It don't matter anyhow
TTITLE4=All my tears
TTITLE5=The damage
TTITLE6=No place to fall
TTITLE7=Rest in the arms of angels
EXTD=
EXTT0=
EXTT1=
EXTT2=
EXTT3=
EXTT4=
EXTT5=
EXTT6=
EXTT7=
PLAYORDER=
